<?xml version="1.0" encoding="utf-8"?>
<!-- Generator: Adobe Illustrator 16.0.4, SVG Export Plug-In . SVG Version: 6.00 Build 0)  -->
<!DOCTYPE svg PUBLIC "-//W3C//DTD SVG 1.1//EN" "http://www.w3.org/Graphics/SVG/1.1/DTD/svg11.dtd">
<svg version="1.1" id="Layer_1" xmlns="http://www.w3.org/2000/svg" xmlns:xlink="http://www.w3.org/1999/xlink" x="0px" y="0px"
	 width="40px" height="40px" viewBox="0 0 40 40" enable-background="new 0 0 40 40" xml:space="preserve">
<path d="M40,6c0,2.209-1.791,4-4,4H4c-2.209,0-4-1.791-4-4l0,0c0-2.209,1.791-4,4-4h32C38.209,2,40,3.791,40,6L40,6z"/>
<path d="M40,20c0,2.209-1.791,4-4,4H4c-2.209,0-4-1.791-4-4l0,0c0-2.209,1.791-4,4-4h32C38.209,16,40,17.791,40,20L40,20z"/>
<path d="M40,34c0,2.209-1.791,4-4,4H4c-2.209,0-4-1.791-4-4l0,0c0-2.209,1.791-4,4-4h32C38.209,30,40,31.791,40,34L40,34z"/>
</svg>
