<?xml version="1.0" encoding="utf-8"?>
<!-- Generator: Adobe Illustrator 16.0.4, SVG Export Plug-In . SVG Version: 6.00 Build 0)  -->
<!DOCTYPE svg PUBLIC "-//W3C//DTD SVG 1.1//EN" "http://www.w3.org/Graphics/SVG/1.1/DTD/svg11.dtd">
<svg version="1.1" id="Layer_2" xmlns="http://www.w3.org/2000/svg" xmlns:xlink="http://www.w3.org/1999/xlink" x="0px" y="0px"
	 width="200px" height="200px" viewBox="0 0 200 200" enable-background="new 0 0 200 200" xml:space="preserve">
<path d="M63,92c0.333,16.334,8.333,36.667,18,51c3.333-2.667,8.333-6.667,8.333-13.333S88.667,79,88.667,69.333
	S84.333,60,82.333,58.667s-3.667-1-3.667-5.333s13-7.667,17.667-9.667c4.667-2,15.997-9.7,21.997-15.7
	c1.099-11.813-3.297-20.377,4.003-20.3c5.753,0.061,5.667,8,5.667,13c0,0,4.333-3.667,7-7.667c22,19,33.667,52.333,34,81.667
	C169.333,124,156,149.333,140.333,166c11.333,8,30.334-7,30.334-7c0.667,15.333-17.667,31.333-35,32S106,175.667,96.333,175.667
	S76,183,74.667,181.667s0.333-8.334,5-13.667c-14.667-7.667-47-23-48.333-75s61-80,61-80C66.334,33.667,62.667,75.667,63,92z
	 M89,157.667c12-6.667,23.667-10,33.667-6C122,125,119,41.333,119,41.333c-7.667,8.333-6,14.333-6,17.667s2.333,56,2.333,64
	s-8.333,14.001-12,16.667c-3.667,2.666-17.667,9-19.333,10.333C86,153.333,89,157.667,89,157.667z M128.333,50l1.334,28
	c0,0,7.334,1,10-2.333C137.667,70,128.333,50,128.333,50z M130.667,108c2.334-1.333,9.333-2.333,12.333-1.333
	c0,0-1.333-10.667-3.333-22.333c-3,1.667-6,2.333-9,1.333C130.667,85.667,131,101.667,130.667,108z M130.667,155.333
	c9.334-7.667,12-33.333,12.333-42c-2.667-2.334-9-1.333-12.333,1.667C130.667,115,131.667,136,130.667,155.333z"/>
</svg>
