<?xml version="1.0" encoding="utf-8"?>
<!-- Generator: Adobe Illustrator 16.0.4, SVG Export Plug-In . SVG Version: 6.00 Build 0)  -->
<!DOCTYPE svg PUBLIC "-//W3C//DTD SVG 1.1//EN" "http://www.w3.org/Graphics/SVG/1.1/DTD/svg11.dtd">
<svg version="1.1" id="Layer_1" xmlns="http://www.w3.org/2000/svg" xmlns:xlink="http://www.w3.org/1999/xlink" x="0px" y="0px"
	 width="40px" height="40px" viewBox="0 0 40 40" enable-background="new 0 0 40 40" xml:space="preserve">
<path d="M22.815,22.707c0,0,0.898,0.876,2.041,0.604c2.627,2.627,0.655,0.655,11.002,11.002l-2.427,2.427
	c0,0-10.053-10.053-11.002-11.002c0.271-1.143-0.604-2.041-0.604-2.041l-0.346,0.015c-4.054,3.348-10.064,3.125-13.857-0.668
	c-4.03-4.03-4.03-10.564,0-14.594c4.029-4.03,10.563-4.03,14.593,0c3.812,3.812,4.018,9.863,0.62,13.917L22.815,22.707z
	 M20.478,21.221c3.047-3.046,3.047-7.986,0-11.033c-3.047-3.047-7.987-3.047-11.034,0c-3.047,3.047-3.047,7.987,0,11.034
	C12.491,24.268,17.431,24.268,20.478,21.221z"/>
</svg>
